<svg 
   xmlns="http://www.w3.org/2000/svg" 
   viewBox="0 0 1000 500" 
   width="1000" 
   height="500">
  
  <style>
    .country {
      fill: #cccccc; /* Default country color (grey) */
      stroke: #ffffff; /* White borders */
      stroke-width: 0.5;
    }
    
    /* This highlights India and Canada */
    #IN, #CA {
      fill: #138808; /* Highlight color (e.g., green) */
    }
  </style>

  <path id="CA" class="country" d="M 100 50 L 300 50 L 250 150 L 150 150 Z" />
  <path id="US" class="country" d="M 150 150 L 250 150 L 250 250 L 150 250 Z" />

  <path id="BR" class="country" d="M 300 300 L 400 300 L 350 450 Z" />
  
  <path id="EG" class="country" d="M 450 200 L 550 200 L 550 300 L 450 300 Z" />
  
  <path id="FR" class="country" d="M 450 100 L 550 100 L 550 180 L 450 180 Z" />

  <path id="IN" class="country" d="M 700 200 L 750 200 L 725 280 Z" />
  <path id="CN" class="country" d="M 700 100 L 850 100 L 850 190 L 700 190 Z" />
  
  <path id="AU" class="country" d="M 800 350 L 900 350 L 850 450 Z" />
  
</svg>